# xmcd
#
# Track frame offsets: 
#        150
#        18746
#        37165
#        56841
#        74031
#        92231
#        106226
#        121816
#        140318
#        150976
#        164586
#        182106
#        197612
#        203953
#
# Disc length: 2955 seconds
#
# Revision: 0
# Processed by: cddbd v1.5.1PL0 Copyright (c) Steve Scherf et al.
# Submitted via: ExactAudioCopy v0.95a3
#
DISCID=cd0b890e
DTITLE=Ronnie Elliott  - My Nerves Are Bad Tonight 
DYEAR=1999
DGENRE=Rock
TTITLE0=They Don't Rob Trains Any More 
TTITLE1=South by So What 
TTITLE2=My Nerves Are Bad Tonight 
TTITLE3=She Sold the Silver 
TTITLE4=How Many Stars 
TTITLE5=Tahitian Inn
TTITLE6=Dogs of Havana 
TTITLE7=Same Three Cords 
TTITLE8=Talkin' to the Man in the Moon 
TTITLE9=Hotel Room in Jacksonville 
TTITLE10=Best I Can Do 
TTITLE11=Hereos 
TTITLE12=intro
TTITLE13=The Twist
EXTD=
EXTT0=
EXTT1=
EXTT2=
EXTT3=
EXTT4=
EXTT5=
EXTT6=
EXTT7=
EXTT8=
EXTT9=
EXTT10=
EXTT11=
EXTT12=
EXTT13=
PLAYORDER=
